<?xml version="1.0" encoding="UTF-8" standalone="no"?>
<!-- Created with Inkscape (http://www.inkscape.org/) -->

<svg
   version="1.1"
   id="svg2"
   width="1526.6667"
   height="418.33334"
   viewBox="0 0 1526.6667 418.33334"
   sodipodi:docname="Foxen-Logo_Navy.eps"
   xmlns:inkscape="http://www.inkscape.org/namespaces/inkscape"
   xmlns:sodipodi="http://sodipodi.sourceforge.net/DTD/sodipodi-0.dtd"
   xmlns="http://www.w3.org/2000/svg"
   xmlns:svg="http://www.w3.org/2000/svg">
  <defs
     id="defs6" />
  <sodipodi:namedview
     id="namedview4"
     pagecolor="#ffffff"
     bordercolor="#000000"
     borderopacity="0.25"
     inkscape:showpageshadow="2"
     inkscape:pageopacity="0.0"
     inkscape:pagecheckerboard="0"
     inkscape:deskcolor="#d1d1d1" />
  <g
     id="g8"
     inkscape:groupmode="layer"
     inkscape:label="ink_ext_XXXXXX"
     transform="matrix(1.3333333,0,0,-1.3333333,0,418.33333)">
    <g
       id="g10"
       transform="scale(0.1)">
      <path
         d="M 0,54.5703 V 171.578 c 249.285,0 305.219,50.883 305.219,300.16 V 2720.32 c 0,249.28 -55.934,300.16 -305.219,300.16 v 117.01 h 2375.76 l 10.19,-793.6 h -91.59 c -66.12,539.22 -213.63,646.08 -854.67,646.08 H 1149.71 V 1723.22 h 227.26 c 406.98,0 509.18,123.27 585.06,412.08 h 139.03 l -272.31,-966.58 h -133.37 c 96.19,342.04 10.16,406.98 -360.81,406.98 H 1149.71 V 471.738 c 0,-244.187 55.97,-300.16 406.99,-300.16 V 54.5703 H 0"
         style="fill:#1c2549;fill-opacity:1;fill-rule:nonzero;stroke:none"
         id="path12" />
      <path
         d="m 3366.69,2211.61 c -234.01,0 -381.53,-340.87 -381.53,-1032.75 0,-696.93 147.52,-1032.712 381.53,-1032.712 234.05,0 381.57,335.782 381.57,1032.712 0,691.88 -147.52,1032.75 -381.57,1032.75 z m 0,-2207.91859 C 2761.3,3.69141 2176.24,476.84 2176.24,1178.86 c 0,696.97 585.06,1170.12 1190.45,1170.12 605.39,0 1185.35,-473.15 1185.35,-1170.12 C 4552.04,476.84 3972.08,3.69141 3366.69,3.69141"
         style="fill:#1c2549;fill-opacity:1;fill-rule:nonzero;stroke:none"
         id="path14" />
      <path
         d="m 7423.81,1575.7 h 712.21 c -10.19,371.38 -137.34,620.63 -351.02,620.63 -213.67,0 -340.86,-198.4 -361.19,-620.63 z M 7810.43,3.69141 c -635.91,0 -1154.85,452.77759 -1154.85,1119.22859 0,691.88 554.55,1226.06 1154.85,1226.06 595.24,0 930.97,-488.39 936.07,-915.74 H 7423.81 c 15.23,-641.002 356.1,-1053.08 773.27,-1053.08 203.5,0 361.2,86.488 498.53,279.801 l 76.31,-61.031 C 8558.28,207.18 8197.08,3.69141 7810.43,3.69141"
         style="fill:#1c2549;fill-opacity:1;fill-rule:nonzero;stroke:none"
         id="path16" />
      <path
         d="M 10040.8,54.5703 H 8789.31 V 161.391 c 203.49,0 223.86,50.879 223.86,300.168 V 1891.11 c 0,249.28 -20.37,300.17 -223.86,300.17 v 106.81 h 640.99 c 213.55,0 386.66,-173.11 386.66,-386.65 v 0 c 101.73,218.77 366.24,437.54 686.74,437.54 468.1,0 722.4,-330.68 722.4,-737.67 V 461.559 c 0,-249.289 20.4,-300.168 223.9,-300.168 V 54.5703 H 10198.5 V 161.391 c 203.5,0 223.8,50.879 223.8,300.168 V 1514.63 c 0,340.87 -137.3,473.11 -330.6,473.11 -106.85,0 -213.71,-66.12 -274.74,-203.45 V 461.559 c 0,-249.289 25.42,-300.168 223.84,-300.168 V 54.5703"
         style="fill:#1c2549;fill-opacity:1;fill-rule:nonzero;stroke:none"
         id="path18" />
      <path
         d="m 5910.28,1393.27 355.71,528.49 c 142.29,208.37 259.18,269.34 487.84,269.34 v 106.72 H 5940.76 V 2191.1 c 147.38,0 213.45,-20.32 213.45,-86.38 0,-40.67 -25.41,-101.64 -81.32,-182.96 L 5823.9,1530.48 c -548.43,818.15 -893.18,899.81 -1546.17,767.34 V 2191.1 c 377.86,54.61 318.66,-93.4 951.61,-1077.33 L 4736.41,432.828 C 4583.96,224.488 4482.32,163.52 4263.81,163.52 V 56.7891 h 848.64 V 163.52 c -167.69,0 -248.99,25.402 -248.99,96.539 0,40.66 25.4,96.562 76.21,172.769 L 5315.71,976.59 C 5949.38,-17.9688 6382.96,-96.3281 6918.9,66.1602 V 172.879 C 6551.19,58.3398 6486.46,471.68 5910.28,1393.27"
         style="fill:#1c2549;fill-opacity:1;fill-rule:nonzero;stroke:none"
         id="path20" />
    </g>
  </g>
</svg>
