<?xml version="1.0" encoding="UTF-8"?>
<svg id="Layer_1" data-name="Layer 1" xmlns="http://www.w3.org/2000/svg" viewBox="0 0 1189.7 252.87">
  <defs>
    <style>
      .cls-1 {
        fill: #ef8021;
      }

      .cls-2 {
        fill: #fff;
      }

      .cls-3 {
        fill: #37b34a;
      }

      .cls-4 {
        fill: #1b75bb;
      }

      .cls-5 {
        fill: #5aa7d6;
      }

      .cls-6 {
        fill: #a50064;
      }

      .cls-7 {
        fill: #f08021;
      }
    </style>
  </defs>
  <g>
    <path class="cls-2" d="M303.53,228.26h-8.28l.22,14.42c0,.34-.28.62-.62.62h-4.22c-.34,0-.62-.28-.62-.62l.28-19.6-.28-18.59c0-.34.28-.62.62-.62h12.79c8.67,0,14.02,4.05,14.02,12s-5.52,12.39-13.91,12.39ZM295.19,223.52v.56h8.62c5.07,0,8.5-2.25,8.5-8.11,0-5.41-3.15-7.94-8.73-7.94h-8.17l-.23,15.49Z"/>
    <path class="cls-2" d="M336.53,243.97c-8.79,0-13.74-5.97-13.74-15.09s4.96-15.26,13.74-15.26,13.74,6.03,13.74,15.15-4.9,15.21-13.74,15.21ZM336.53,240.2c5.69,0,8.45-4.05,8.45-11.32s-2.82-11.49-8.45-11.49c-5.69.06-8.5,4.22-8.5,11.49s2.87,11.32,8.5,11.32Z"/>
    <path class="cls-2" d="M380.97,243.29c-.34,0-.68-.28-.79-.62l-6.08-24.33-5.52,24.33c-.06.34-.39.62-.73.62h-4.73c-.34,0-.68-.28-.79-.62l-7.38-27.77c-.11-.34.17-.62.45-.62h3.94c.34,0,.68.28.73.62l5.63,24.16,5.58-24.16c.06-.34.39-.62.73-.62h4.84c.34,0,.68.28.79.62l5.74,23.77,5.41-23.77c.06-.34.39-.62.73-.62h3.55c.34,0,.56.28.45.62l-7.04,27.77c-.11.34-.45.62-.79.62h-4.73Z"/>
    <path class="cls-2" d="M424.22,233.21c.34,0,.56.28.51.62-.9,5.86-5.29,10.14-12.67,10.14-9.07,0-13.85-6.25-13.85-15.09s5.18-15.26,13.57-15.26,13.24,5.74,13.46,15.26c0,.34-.28.62-.62.62h-21.23c.17,6.98,3.04,10.7,8.73,10.7,4.22,0,6.81-2.2,7.72-6.36.06-.39.39-.62.73-.62h3.66ZM411.78,217.33c-4.73,0-7.49,3.1-8.22,8.56h16.16c-.17-4.62-2.76-8.56-7.94-8.56Z"/>
    <path class="cls-2" d="M433.8,243.29c-.34,0-.62-.28-.62-.62l.17-14.19-.17-13.57c0-.34.28-.62.62-.62h3.94c.34,0,.62.28.62.62l-.23,4.9c2.08-3.83,5.8-5.8,9.86-5.8.56,0,1.13.06,1.58.17.34.06.62.39.62.68v2.93c0,.39-.28.62-.62.56-.45-.11-1.01-.11-1.63-.11-4.79,0-8.84,2.87-9.63,9.12l.11,15.32c0,.34-.28.62-.62.62h-4Z"/>
    <path class="cls-2" d="M479.76,233.21c.34,0,.56.28.51.62-.9,5.86-5.29,10.14-12.67,10.14-9.07,0-13.86-6.25-13.86-15.09s5.18-15.26,13.57-15.26,13.23,5.74,13.46,15.26c0,.34-.28.62-.62.62h-21.23c.17,6.98,3.04,10.7,8.73,10.7,4.22,0,6.81-2.2,7.71-6.36.06-.39.39-.62.73-.62h3.66ZM467.31,217.33c-4.73,0-7.49,3.1-8.22,8.56h16.16c-.17-4.62-2.76-8.56-7.94-8.56Z"/>
    <path class="cls-2" d="M509.38,243.29c-.34,0-.62-.28-.62-.62l.17-4.06c-1.97,3.27-5.13,5.24-9.29,5.24-7.83,0-12-6.53-12-14.98s4.39-15.15,12.05-15.15c4.06,0,7.15,1.69,9.12,4.9l-.11-14.14c0-.34.28-.62.62-.62h4c.34,0,.62.28.62.62l-.17,16.95.17,21.23c0,.34-.28.62-.62.62h-3.94ZM500.93,240.14c4.9,0,8.05-3.72,8.11-11.09.06-7.32-2.87-11.6-8-11.66-5.63-.06-8.22,4.56-8.22,11.09,0,6.98,2.59,11.66,8.11,11.66Z"/>
    <path class="cls-2" d="M551.17,243.86c-4.17,0-7.27-1.75-9.18-5.07l.11,3.89c0,.34-.28.62-.62.62h-3.94c-.34,0-.62-.28-.62-.62l.23-21.01-.23-17.18c0-.34.28-.62.62-.62h4c.34,0,.62.28.62.62l-.11,14.31c1.97-3.15,5.07-5.07,9.18-5.07,7.83,0,12,6.53,12,14.98s-4.39,15.15-12.05,15.15ZM549.82,240.03c5.63.06,8.22-4.51,8.22-10.98,0-6.87-2.59-11.55-8.11-11.55-4.9,0-8.05,3.72-8.11,10.98-.06,7.32,2.87,11.55,8,11.55Z"/>
    <path class="cls-2" d="M580.46,252.3c-.11.34-.51.56-.84.56h-3.6c-.28,0-.51-.28-.39-.56l3.04-9.01-11.32-28.44c-.11-.28.11-.56.39-.56h4.51c.34,0,.73.23.84.56l8.17,21.8,6.98-21.8c.11-.34.45-.56.79-.56h4c.34,0,.51.28.39.56l-12.95,37.45Z"/>
    <path class="cls-2" d="M611.73,231.7h9.06c0,2.54,2.54,4.5,5.65,4.5,2.94,0,5.19-1.5,5.19-4.09,0-1.56-.87-3-4.38-4.15l-4.73-1.44c-8.77-2.37-10.44-7.73-10.44-11.48,0-7.15,6.11-12.17,14.02-12.17s13.44,4.56,13.44,12.29h-9.06c0-2.37-1.44-4.38-4.56-4.38-2.83,0-4.67,1.9-4.67,4.09,0,.81.23,2.6,3.92,3.63l4.15,1.33c5.65,1.73,11.42,4.61,11.42,11.82,0,8.54-7.38,12.34-14.65,12.34-8.48,0-14.36-4.96-14.36-12.29Z"/>
    <path class="cls-2" d="M696.57,243.29h-9.29l-2.6-22.61-8.65,18.05h-6.92l-8.65-18-2.65,22.55h-9.29l4.9-39.74h7.56l11.59,24.86,11.42-24.86h7.73l4.84,39.74Z"/>
    <path class="cls-2" d="M731.06,243.29l-3-9.23h-13.96l-2.94,9.23h-9.69l14.71-39.74h9.86l14.65,39.74h-9.63ZM716.59,226.22h8.94l-4.5-14.02-4.44,14.02Z"/>
    <path class="cls-7" d="M781.54,203.55v7.9h-10.5v31.84h-9.05v-31.84h-10.5v-7.9h30.05Z"/>
    <path class="cls-7" d="M783.62,223.39c0-11.25,8.94-20.53,20.3-20.53s20.25,9.29,20.25,20.53-9.05,20.59-20.25,20.59-20.3-9.34-20.3-20.59ZM815.05,223.39c0-6.63-4.56-12-11.19-12s-11.13,5.36-11.13,12,4.44,12.06,11.13,12.06,11.19-5.42,11.19-12.06Z"/>
    <path class="cls-7" d="M846.66,203.55c11.48,0,18.11,8.65,18.11,19.96s-6.63,19.78-18.11,19.78h-15.69v-39.74h15.69ZM846.66,235.39c5.94,0,9-5.71,9-11.88s-3.06-12.05-9-12.05h-6.63v23.94h6.63Z"/>
    <g>
      <path class="cls-7" d="M896.47,214.74c0,6.09-4.84,11.03-10.93,11.03s-10.9-4.94-10.9-11.03,4.81-11.06,10.9-11.06,10.93,4.97,10.93,11.06ZM894.54,214.74c0-5.03-4-9.12-9-9.12s-9,4.12-9,9.12,4,9.09,9,9.09,9-4.09,9-9.09ZM887.32,216.49l2.59,3.56h-2.81l-2.44-3.47h-.38v3.47h-2.53v-10.62h4.37c2.5,0,3.66,1.75,3.66,3.56,0,2.25-1.12,3.22-2.47,3.5ZM884.29,211.71v2.9h1.38c1.16,0,1.53-.87,1.53-1.5,0-.56-.38-1.41-1.44-1.41h-1.47Z"/>
      <path class="cls-1" d="M885.54,226.02c-6.15,0-11.15-5.06-11.15-11.28s4.9-11.31,11.15-11.31,11.18,5.07,11.18,11.31-5.02,11.28-11.18,11.28ZM885.54,203.93c-5.97,0-10.65,4.75-10.65,10.81s4.78,10.78,10.65,10.78,10.68-4.83,10.68-10.78-4.79-10.81-10.68-10.81ZM885.54,224.08c-5.1,0-9.25-4.19-9.25-9.34s4.15-9.37,9.25-9.37,9.25,4.2,9.25,9.37-4.15,9.34-9.25,9.34ZM885.54,205.87c-4.82,0-8.75,3.98-8.75,8.87s3.92,8.84,8.75,8.84,8.75-3.97,8.75-8.84-3.92-8.87-8.75-8.87ZM890.41,220.3h-3.43l-2.43-3.46v3.46h-3.03v-11.12h4.62c2.7,0,3.91,1.91,3.91,3.81s-.81,3.18-2.3,3.65l2.67,3.66ZM887.23,219.8h2.19l-2.53-3.48.38-.08c1.48-.31,2.27-1.43,2.27-3.25,0-1.53-.89-3.31-3.41-3.31h-4.12v10.12h2.03v-3.47h.75l2.44,3.47ZM885.67,214.86h-1.62v-3.4h1.72c1.24,0,1.69.99,1.69,1.66,0,.84-.56,1.75-1.78,1.75ZM884.54,214.36h1.12c1.24,0,1.28-1.12,1.28-1.25,0-.4-.25-1.16-1.19-1.16h-1.22v2.4Z"/>
    </g>
    <g>
      <path class="cls-2" d="M302.15,14.53h-20.63V.27h57.89v14.26h-20.63v53.71h-16.64V14.53Z"/>
      <path class="cls-2" d="M345.88.27h16.45v21.48c0,2.47-.19,4.18-.19,4.18h.19c2.76-4.85,8.46-7.79,14.92-7.79,9.89,0,17.59,4.56,17.59,18.35v31.75h-16.45v-28.71c0-4.56-1.81-6.46-5.42-6.46-5.04,0-8.37,2.95-9.79,7.22-.67,1.9-.86,3.99-.86,6.27v21.67h-16.45V.27Z"/>
      <path class="cls-2" d="M428.3,18.14c14.45,0,22.62,10.08,22.62,23.67,0,1.62-.38,5.13-.38,5.13h-30.9c1.24,5.99,6.18,8.75,11.41,8.75,7.04,0,13.5-4.94,13.5-4.94l6.08,11.5s-7.89,7.13-20.91,7.13c-17.49,0-26.9-12.64-26.9-25.67,0-14.35,9.7-25.57,25.48-25.57ZM434.38,37.53c0-3.71-2.57-7.04-6.46-7.04-4.75,0-7.04,3.42-7.89,7.04h14.35Z"/>
      <path class="cls-2" d="M483.53.27h28.23c13.21,0,22.15,9.7,22.15,23.39s-8.94,23.58-22.15,23.58h-11.6v21.01h-16.63V.27ZM508.34,32.97c5.8,0,8.65-3.9,8.65-9.32s-2.85-9.13-8.37-9.13h-8.46v18.44h8.18Z"/>
      <path class="cls-2" d="M541.89,19.28h15.78v8.27c0,1.62-.19,3.04-.19,3.04h.19c2.09-6.65,8.27-12.17,15.59-12.17.95,0,1.9.19,1.9.19v16.16s-1.33-.29-3.33-.29c-3.9,0-10.27,1.24-12.64,8.56-.57,1.81-.86,3.99-.86,6.65v18.54h-16.45V19.28Z"/>
      <path class="cls-2" d="M606.82,18.14c15.5,0,27.85,10.36,27.85,25.76s-12.36,25.48-27.76,25.48-27.76-10.17-27.76-25.48,12.36-25.76,27.66-25.76ZM606.91,55.69c5.99,0,11.12-4.47,11.12-11.79s-5.13-12.07-11.12-12.07-11.12,4.66-11.12,12.07,5.13,11.79,11.12,11.79Z"/>
      <path class="cls-2" d="M663.09,74.51c5.89,0,11.31-2.19,11.31-9.41v-1.62c0-.57.09-1.81.09-1.81h-.19c-2.85,3.42-6.56,5.13-12.26,5.13-14.73,0-22.05-12.07-22.05-24.62s7.13-24.05,21.96-24.05c8.94,0,13.31,4.75,13.31,4.75h.29s-.1-.57-.1-1.14v-2.47h15.4v44.49c0,17.87-14.26,24.43-27.66,24.43-6.56,0-13.78-1.9-18.54-4.37l4.66-12.45s6.08,3.14,13.78,3.14ZM674.79,42.38c0-8.65-4.56-10.55-9.51-10.55-5.8,0-8.75,4.18-8.75,9.79,0,6.08,2.85,11.5,9.41,11.5,4.28,0,8.84-2.19,8.84-10.74Z"/>
      <path class="cls-2" d="M703.02,19.28h15.78v8.27c0,1.62-.19,3.04-.19,3.04h.19c2.09-6.65,8.27-12.17,15.59-12.17.95,0,1.9.19,1.9.19v16.16s-1.33-.29-3.33-.29c-3.9,0-10.27,1.24-12.64,8.56-.57,1.81-.86,3.99-.86,6.65v18.54h-16.45V19.28Z"/>
      <path class="cls-2" d="M768.61,37.72h.67v-.86c0-4.09-3.14-5.42-7.22-5.42-6.18,0-13.21,4.66-13.21,4.66l-5.7-11.6s8.46-6.37,20.53-6.37c13.79,0,22.05,7.51,22.05,19.96v30.13h-15.02v-2.95c0-1.62.19-3.04.19-3.04h-.19s-3.61,7.13-13.88,7.13c-9.13,0-16.64-6.08-16.64-15.78,0-14.26,20.82-15.88,28.42-15.88ZM761.39,56.83c4.28,0,8.08-4.66,8.08-8.65v-1.05h-1.52c-5.23,0-11.22,1.52-11.22,5.61,0,2.28,1.43,4.09,4.66,4.09Z"/>
      <path class="cls-2" d="M797.13,19.28h15.78v4.28c0,1.62-.19,3.04-.19,3.04h.19c2.28-3.42,6.85-8.46,14.54-8.46,6.18,0,11.12,2.76,13.69,8.27h.19c2.57-4.09,8.37-8.27,15.69-8.27,8.94,0,15.88,4.85,15.88,18.35v31.75h-16.45v-28.99c0-3.61-.67-6.18-3.8-6.18-5.23,0-7.98,3.8-9.03,9.22-.38,1.71-.38,3.71-.38,5.7v20.25h-16.45v-28.99c0-3.61-.67-6.18-3.8-6.18-5.13,0-7.79,3.61-8.94,8.84-.38,1.81-.47,3.99-.47,6.08v20.25h-16.45V19.28Z"/>
      <path class="cls-2" d="M289.13,95.33h16.64v53.71h27.76v14.26h-44.39v-67.97Z"/>
      <path class="cls-2" d="M340.75,114.34h16.45v48.96h-16.45v-48.96ZM340.94,95.33h16.07v12.83h-16.07v-12.83Z"/>
      <path class="cls-2" d="M372.4,128.03h-5.99v-12.83h5.99v-2c0-16.07,14.54-18.25,22.43-18.25,2.95,0,4.94.29,4.94.29v13.88s-1.14-.19-2.66-.19c-3.23,0-8.27.57-8.27,4.75v1.52h9.03v12.83h-9.03v35.27h-16.45v-35.27Z"/>
      <path class="cls-2" d="M427.82,113.2c14.45,0,22.62,10.08,22.62,23.67,0,1.62-.38,5.13-.38,5.13h-30.89c1.24,5.99,6.18,8.75,11.41,8.75,7.03,0,13.5-4.94,13.5-4.94l6.08,11.5s-7.89,7.13-20.91,7.13c-17.49,0-26.9-12.64-26.9-25.67,0-14.35,9.7-25.57,25.48-25.57ZM433.9,132.59c0-3.71-2.57-7.03-6.46-7.03-4.75,0-7.03,3.42-7.89,7.03h14.35Z"/>
      <path class="cls-2" d="M483.05,113.2c13.31,0,19.49,7.42,19.49,7.42l-6.94,11.03s-4.75-4.75-11.5-4.75c-7.79,0-11.69,5.89-11.69,11.69s3.99,12.17,12.26,12.17c6.84,0,13.4-5.89,13.4-5.89l5.99,11.5s-7.32,8.08-21.01,8.08c-17.49,0-27.28-12.17-27.28-25.67s9.7-25.57,27.28-25.57Z"/>
      <path class="cls-2" d="M511,167.77s2.66,1.81,5.04,1.81c2.66,0,6.18-.76,7.89-4.94l.95-2.28-20.82-48.01h18.63l7.22,22.53c.86,2.66,1.81,7.6,1.81,7.6h.19s.95-4.66,1.62-7.32l6.18-22.82h17.97l-20.06,54.19c-4.09,10.93-12.64,14.73-20.44,14.73-6.46,0-11.41-3.42-11.41-3.42l5.23-12.07Z"/>
      <path class="cls-2" d="M587.33,113.2c13.31,0,19.49,7.42,19.49,7.42l-6.94,11.03s-4.75-4.75-11.5-4.75c-7.79,0-11.69,5.89-11.69,11.69s3.99,12.17,12.26,12.17c6.84,0,13.4-5.89,13.4-5.89l5.99,11.5s-7.32,8.08-21.01,8.08c-17.49,0-27.28-12.17-27.28-25.67s9.7-25.57,27.28-25.57Z"/>
      <path class="cls-2" d="M615.37,95.33h16.45v47.72c0,4.66.86,6.27,4.56,6.27,1.05,0,2-.1,2-.1v14.26s-2.28.29-4.94.29c-8.75,0-18.06-2.09-18.06-18.54v-49.91Z"/>
      <path class="cls-2" d="M668.7,113.2c14.45,0,22.62,10.08,22.62,23.67,0,1.62-.38,5.13-.38,5.13h-30.9c1.24,5.99,6.18,8.75,11.41,8.75,7.04,0,13.5-4.94,13.5-4.94l6.08,11.5s-7.89,7.13-20.91,7.13c-17.49,0-26.9-12.64-26.9-25.67,0-14.35,9.7-25.57,25.48-25.57ZM674.79,132.59c0-3.71-2.57-7.03-6.46-7.03-4.75,0-7.04,3.42-7.89,7.03h14.35Z"/>
      <path class="cls-2" d="M754.92,94.19c16.83,0,25.48,9.6,25.48,9.6l-7.7,12.55s-7.6-6.94-17.02-6.94c-13.02,0-19.2,9.6-19.2,19.39s6.65,20.44,19.2,20.44c10.27,0,18.06-8.37,18.06-8.37l8.55,12.17s-9.6,11.41-27.38,11.41c-21.29,0-35.65-15.11-35.65-35.27s15.21-34.98,35.65-34.98Z"/>
      <path class="cls-2" d="M814.53,113.2c15.5,0,27.85,10.36,27.85,25.76s-12.36,25.48-27.76,25.48-27.76-10.17-27.76-25.48,12.36-25.76,27.66-25.76ZM814.62,150.75c5.99,0,11.12-4.47,11.12-11.79s-5.13-12.07-11.12-12.07-11.12,4.66-11.12,12.07,5.13,11.79,11.12,11.79Z"/>
      <path class="cls-2" d="M850.93,114.34h15.78v4.28c0,1.62-.19,3.04-.19,3.04h.19c2.28-3.42,6.85-8.46,14.54-8.46,6.18,0,11.12,2.76,13.69,8.27h.19c2.57-4.09,8.37-8.27,15.69-8.27,8.94,0,15.88,4.85,15.88,18.35v31.75h-16.45v-28.99c0-3.61-.67-6.18-3.8-6.18-5.23,0-7.98,3.8-9.03,9.22-.38,1.71-.38,3.71-.38,5.7v20.25h-16.45v-28.99c0-3.61-.67-6.18-3.8-6.18-5.13,0-7.79,3.61-8.94,8.84-.38,1.81-.47,3.99-.47,6.08v20.25h-16.45v-48.96Z"/>
      <path class="cls-2" d="M938.2,114.34h14.83v2.47c0,1.62-.19,3.14-.19,3.14h.19s4.47-6.75,14.83-6.75c13.31,0,22.05,10.46,22.05,25.67s-9.79,25.57-22.81,25.57c-7.99,0-12.45-4.66-12.45-4.66h-.19s.19,1.71.19,4.18v18.35h-16.45v-67.97ZM963.77,150.85c5.13,0,9.6-4.18,9.6-11.69s-3.9-12.07-9.6-12.07c-4.94,0-9.6,3.61-9.6,12.07,0,5.89,3.14,11.69,9.6,11.69Z"/>
      <path class="cls-2" d="M1023.47,132.79h.67v-.86c0-4.09-3.14-5.42-7.23-5.42-6.18,0-13.21,4.66-13.21,4.66l-5.7-11.6s8.46-6.37,20.53-6.37c13.78,0,22.05,7.51,22.05,19.96v30.13h-15.02v-2.95c0-1.62.19-3.04.19-3.04h-.19s-3.61,7.13-13.88,7.13c-9.13,0-16.64-6.08-16.64-15.78,0-14.26,20.82-15.88,28.42-15.88ZM1016.25,151.89c4.28,0,8.08-4.66,8.08-8.65v-1.05h-1.52c-5.23,0-11.22,1.52-11.22,5.61,0,2.28,1.43,4.09,4.66,4.09Z"/>
      <path class="cls-2" d="M1051.99,114.34h15.78v4.28c0,1.62-.19,3.04-.19,3.04h.19c2.28-3.8,6.94-8.46,15.59-8.46,9.89,0,17.59,4.56,17.59,18.35v31.75h-16.45v-28.71c0-4.56-1.81-6.46-5.42-6.46-5.13,0-8.27,2.85-9.7,7.04-.67,1.9-.95,4.09-.95,6.46v21.67h-16.45v-48.96Z"/>
      <path class="cls-2" d="M1111.69,167.77s2.66,1.81,5.04,1.81c2.66,0,6.18-.76,7.89-4.94l.95-2.28-20.82-48.01h18.63l7.22,22.53c.86,2.66,1.81,7.6,1.81,7.6h.19s.95-4.66,1.62-7.32l6.18-22.82h17.97l-20.06,54.19c-4.09,10.93-12.64,14.73-20.44,14.73-6.46,0-11.41-3.42-11.41-3.42l5.23-12.07Z"/>
    </g>
    <g>
      <path class="cls-3" d="M241.94,31.81c-.04,14.98-10.74,28.42-26.29,32.2-6.26,1.52-12.81,1.86-19.22,2.78-22.34,3.22-38.78,20.73-40.68,43.25-.33,3.9-.64,7.83-1.31,11.68-3.54,20.08-18.18,32.58-39.98,33.86-14.31.84-26.67,5.34-36.48,16.36-7.38,8.29-10.95,17.84-11.95,28.67-.44,4.8-.91,9.64-1.96,14.32-5.28,23.51-30.64,34.85-49.84,22.43-20.29-13.13-18.58-42.99,3.12-55.11,6.91-3.86,14.4-5.24,22.14-5.72,20.82-1.29,35.68-11.37,43.6-30.63,2.36-5.73,3.13-12.27,3.73-18.53,2.38-24.94,16.27-38.89,41.42-40.45,18.41-1.14,32.59-8.96,42.01-24.95,4.82-8.19,5.55-17.43,6.38-26.6.92-10.11,4.43-18.99,11.88-26.17,9.27-8.93,22.57-11.58,34.36-6.65,11.76,4.91,19.09,16.17,19.06,29.26Z"/>
      <path class="cls-7" d="M242,121.49c-.04,15.02-10.72,28.41-26.23,32.24-5.82,1.44-11.89,1.92-17.87,2.68-23.73,3.02-40.02,20.3-42.21,44.25-.63,6.85-1.42,14.02-4,20.28-7.87,19.05-28.17,27.15-45.8,17.71-17.76-9.51-21.87-34.05-8.27-48.91,8.19-8.94,18.58-12.46,30.28-13.23,11.53-.75,22.24-3.54,31.22-11.49,9.72-8.61,15.39-19.11,16.67-32.08.59-5.99,1.06-12.13,2.8-17.83,3.86-12.67,12.09-21.59,25.36-24.57,12.04-2.7,22.37.98,30.6,10.18,5.26,5.88,7.73,12.86,7.46,20.77Z"/>
      <path class="cls-6" d="M152.21,25.77c-.03,22.76-12.83,36.53-31.06,39.2-5.81.85-11.72,1.15-17.48,2.27-20.81,4.07-35.89,21.54-37.66,43.08-.7,8.56-1.45,17.09-5.9,24.85-10.8,18.82-34.47,23.36-49.82,9.41-16.32-14.83-12.6-40.93,7.32-52.07,7.09-3.97,14.79-5.06,22.63-5.58,17.22-1.13,30.32-9.05,39.65-23.45,5.39-8.31,6.28-17.79,7.12-27.27,1.07-12.13,5.38-22.66,15.52-29.91,10.49-7.49,21.86-8.39,33.27-2.28,10.89,5.83,16.27,15.27,16.39,21.74Z"/>
      <path class="cls-4" d="M242.07,211.29c-.07,17.38-14.13,31.42-31.39,31.34-17.64-.09-31.5-14.06-31.49-31.74,0-17.6,14.16-31.73,31.67-31.61,17.48.12,31.27,14.27,31.21,32.02Z"/>
      <path class="cls-5" d="M62.44,31.7c0,17.46-14.13,31.52-31.39,31.25C13.77,62.68.21,48.88.15,31.49.1,14.3,14.42-.09,31.71.26c16.66.33,31.48,14.36,30.73,31.45Z"/>
    </g>
  </g>
  <g>
    <path class="cls-2" d="M1189.45,125.03c0,6.09-4.84,11.03-10.93,11.03s-10.9-4.94-10.9-11.03,4.81-11.06,10.9-11.06,10.93,4.97,10.93,11.06ZM1187.51,125.03c0-5.03-4-9.12-9-9.12s-9,4.12-9,9.12,4,9.09,9,9.09,9-4.09,9-9.09ZM1180.29,126.78l2.59,3.56h-2.81l-2.44-3.47h-.38v3.47h-2.53v-10.62h4.37c2.5,0,3.66,1.75,3.66,3.56,0,2.25-1.12,3.22-2.47,3.5ZM1177.26,122v2.9h1.38c1.16,0,1.53-.87,1.53-1.5,0-.56-.38-1.41-1.44-1.41h-1.47Z"/>
    <path class="cls-2" d="M1178.51,136.31c-6.15,0-11.15-5.06-11.15-11.28s4.9-11.31,11.15-11.31,11.18,5.07,11.18,11.31-5.02,11.28-11.18,11.28ZM1178.51,114.22c-5.97,0-10.65,4.75-10.65,10.81s4.78,10.78,10.65,10.78,10.68-4.83,10.68-10.78-4.79-10.81-10.68-10.81ZM1178.51,134.37c-5.1,0-9.25-4.19-9.25-9.34s4.15-9.37,9.25-9.37,9.25,4.2,9.25,9.37-4.15,9.34-9.25,9.34ZM1178.51,116.16c-4.82,0-8.75,3.98-8.75,8.87s3.92,8.84,8.75,8.84,8.75-3.97,8.75-8.84-3.92-8.87-8.75-8.87ZM1183.38,130.59h-3.43l-2.43-3.46v3.46h-3.03v-11.12h4.62c2.7,0,3.91,1.91,3.91,3.81s-.81,3.18-2.3,3.65l2.67,3.66ZM1180.21,130.09h2.19l-2.53-3.48.38-.08c1.48-.31,2.27-1.43,2.27-3.25,0-1.53-.89-3.31-3.41-3.31h-4.12v10.12h2.03v-3.47h.75l2.44,3.47ZM1178.64,125.15h-1.62v-3.4h1.72c1.24,0,1.69.99,1.69,1.66,0,.84-.56,1.75-1.78,1.75ZM1177.51,124.65h1.12c1.24,0,1.28-1.12,1.28-1.25,0-.4-.25-1.16-1.19-1.16h-1.22v2.4Z"/>
  </g>
</svg>