<svg width="265" height="36" fill="none" xmlns="http://www.w3.org/2000/svg"><g clip-path="url(#clip0)"><path d="M40.099 14.123H27.235l-3.753 3.754v14.345L27.259 36h12.865l3.777-3.778V17.876L40.1 14.123zm-2.321 16.89h-8.197V19.085h8.197v11.926zM83.63 36V19.086h7.11v-4.963H70.42v4.963h7.11V36h6.1zM16.617 36l3.778-3.778v-5.26L6.1 20.84v-1.754h8.197v1.852h6.1v-3.061l-3.779-3.754H3.777L0 17.877v5.259l14.296 6.123v1.753H6.1v-1.827H0v3.037L3.778 36h12.84zM63.58 36l3.753-3.778V14.123h-6.098v16.89h-8.198v-16.89h-6.099v18.1L50.716 36H63.58zM108.123 14.123v7.704h-8.197v-7.704h-6.099V36h6.099v-9.21h8.197V36h6.099V14.123h-6.099zM143.457 14.123h-16.321V36h16.321l4-3.778V17.876l-4-3.753zm-2.47 16.89h-7.382V19.085h7.382v11.926zM166.864 14.123h-12.321l-4 3.778v18.124h6.469v-5.58h7.383v5.58h6.469V17.877l-4-3.754zm-2.469 11.31h-7.383v-6.026h7.383v6.025zM188.519 24.148l5.728-4.395v-5.63h-6.469v3.778l-7.383 5.68v-9.458h-6.444V36h6.444v-5.605l3.704-2.84 3.679 2.84V36h6.469v-7.457l-5.728-4.395zM213.975 14.123h-12.864l-3.778 3.778v14.346l3.778 3.778h12.864l3.778-3.778v-14.37l-3.778-3.754zm-2.346 16.89h-8.197V19.085h8.197v11.926zM234.025 36V19.086h7.111v-4.963h-20.321v4.963h7.111V36h6.099zM260.543 14.123h-12.321l-4 3.778v18.124h6.469v-5.58h7.383v5.58h6.469V17.877l-4-3.754zm-2.469 11.31h-7.383v-6.026h7.383v6.025z" fill="#D21533"/><path d="M123.827 2.296V0h-7.704l-1.728 1.753v6.642l1.728 1.753h7.704v-2.32h-6.617V6.42h4.494V4.123h-4.494V2.296h6.617zM160.988 2.296V0h-7.704l-1.753 1.753v6.642l1.753 1.753h7.704v-2.32h-6.642V6.42h4.494V4.123h-4.494V2.296h6.642zM137.383 0h-5.704l-1.852 1.753v8.395h2.988V7.556h3.432v2.592h2.987V1.753L137.383 0zm-1.161 5.235h-3.432v-2.79h3.432v2.79zM150.099 1.753L148.247 0h-7.58v10.148h2.839V6.444h3.754v3.68h2.839V6.147l-.988-.716.988-.716V1.753zm-2.839.321v2.321h-3.754v-2.32h3.754zM105.21 10.148h2.444l.544-.938.543.938h2.444l1.729-1.753V0h-2.815v7.827h-.741V5.235h-2.321v2.592h-.741V0h-2.814v8.395l1.728 1.753z" fill="#4D4D4F"/></g><defs><clipPath id="clip0"><path fill="#fff" d="M0 0h264.518v36H0z"/></clipPath></defs></svg>