<svg xmlns="http://www.w3.org/2000/svg" width="248" height="77" fill="#03379c" xml:space="preserve" viewBox="0 0 283.5 55"><path d="M37.5.1 23.9 39.6H13.6L0 .1h10.3l8.6 26.8L27.5.1h10zm3.6 39.5V.1h26.7v7.5H51v7.8h9.3V23H51v9h16.8v7.5H41.1zm108.1-19.7c0 3.7-.8 7-2.4 9.9-1.6 2.9-3.6 5.1-6.1 6.7-2.1 1.3-4.3 2.2-6.7 2.6-2.4.4-5 .6-7.7.6H114V.1h12.2c2.8 0 5.4.2 7.8.5 2.4.4 4.7 1.2 6.8 2.6 2.6 1.7 4.6 3.9 6.1 6.7 1.5 2.8 2.3 6.2 2.3 10zm-10.2-.1c0-2.6-.4-4.8-1.3-6.7a10 10 0 0 0-4.1-4.3c-1.3-.7-2.7-1.2-4.2-1.2-1.5-.1-3.2-.1-5.3-.1h-.2v24.7h.2c2.2 0 4.1 0 5.6-.1s3-.6 4.4-1.4c1.6-1 2.9-2.4 3.7-4.2.8-1.9 1.2-4.1 1.2-6.7zm16 19.8V.1h26.7v7.5h-16.8v7.8h9.3V23h-9.3v9h16.8v7.5H155zm46.8-21.7c1.4 0 1.8-.1 2.8-.3a5.2 5.2 0 0 0 3.9-2.9c.3-.7.5-1.6.5-2.7 0-1-.2-1.8-.6-2.6-.4-.7-1-1.3-1.9-1.7-.6-.3-1.3-.4-2.1-.5-.8-.1-1.7-.1-2.8-.1h-3.3v32.4h-9.9V0h15.9c2.2 0 4.1.1 5.7.4 1.6.3 3.1.8 4.5 1.7 1.4.9 2.5 2 3.4 3.4.8 1.4 1.2 3.1 1.2 5.3 0 3-.7 5.5-2 7.4-1.4 1.9-3.2 3.4-5.5 4.5l13.3 16.8h-12.1l-11-14.5v-7.1zM87.9 18c1.4 0 1.8-.1 2.8-.3a5.2 5.2 0 0 0 3.9-2.9c.3-.7.5-1.6.5-2.7 0-1-.2-1.8-.6-2.6-.4-.7-1-1.3-1.9-1.7-.6-.3-1.3-.4-2.1-.5-.8-.1-1.7-.1-2.8-.1h-3.3v32.4h-9.9V.1h15.9c2.2 0 4.1.1 5.7.4 1.6.3 3.1.8 4.5 1.7 1.4.9 2.5 2.1 3.4 3.4.8 1.4 1.2 3.2 1.2 5.3 0 3-.7 5.5-2 7.4-1.4 1.9-3.2 3.4-5.5 4.5L111 39.6H98.9l-11-14.5V18z" class="st0"/><path d="M232.4 47.4H6.2V55h234.5V37.5L269 55h14.5l-51.1-31.7z" class="st0"/></svg>
