<?xml version="1.0" encoding="utf-8"?>
<!-- Generator: Adobe Illustrator 23.0.1, SVG Export Plug-In . SVG Version: 6.00 Build 0)  -->
<svg version="1.1" id="レイヤー_1" xmlns="http://www.w3.org/2000/svg" xmlns:xlink="http://www.w3.org/1999/xlink" x="0px"
	 y="0px" viewBox="0 0 260 41" style="enable-background:new 0 0 260 41;" xml:space="preserve">
<style type="text/css">
	.st0{clip-path:url(#SVGID_2_);}
	.st1{fill:#F8CA57;}
	.st2{fill:#F78958;}
	.st3{fill:#A2D4D7;}
	.st4{fill:#E8A7D3;}
	.st5{fill-rule:evenodd;clip-rule:evenodd;fill:#444446;}
	.st6{fill-rule:evenodd;clip-rule:evenodd;fill:#5CD0D7;}
</style>
<g>
	<defs>
		<rect id="SVGID_1_" width="260" height="41"/>
	</defs>
	<clipPath id="SVGID_2_">
		<use xlink:href="#SVGID_1_"  style="overflow:visible;"/>
	</clipPath>
	<g class="st0">
		<g>
			<path class="st1" d="M2.9,40.8H0V0h2.9V40.8z"/>
			<path class="st1" d="M7.9,40.8H5V3h2.9V40.8z"/>
			<path class="st1" d="M12.9,40.8H10V5.7h2.9V40.8z"/>
			<path class="st2" d="M17.9,40.8H15v-32h2.9V40.8z"/>
			<path class="st2" d="M22.9,40.8H20V11.3h2.9V40.8z"/>
			<path class="st2" d="M27.9,40.8H25V14.2h2.9V40.8z"/>
			<path class="st3" d="M55.1,40.8H58V0h-2.9V40.8z"/>
			<path class="st3" d="M50.1,40.8H53V3h-2.9V40.8z"/>
			<path class="st3" d="M45.1,40.8H48V5.7h-2.9V40.8z"/>
			<path class="st4" d="M40.1,40.8H43v-32h-2.9V40.8z"/>
			<path class="st4" d="M35.1,40.8H38V11.3h-2.9V40.8z"/>
			<path class="st4" d="M30.1,40.8H33V14.2h-2.9V40.8z"/>
		</g>
		<path class="st5" d="M148.3,9.9h1.8V8.5h-5.2v1.4h1.8v8.2h-1.8v1.4h5.2v-1.4h-1.8V9.9z M161.4,19.5V8.5H160v7.9l-7.1-7.9h-0.6
			v10.9h1.5v-7.8l7.1,7.8H161.4z M166.3,8.4c-1.9,0-3.6,1.3-3.6,3.1c0,1.2,0.5,2.1,2,2.8l1.8,0.8c0.7,0.3,1.6,0.8,1.6,1.6
			c0,1-1,1.5-2.1,1.5c-1.4,0-2.5-0.6-3.3-1.1v1.5c0.8,0.6,1.9,1.1,3.1,1.1c2,0,3.8-1.3,3.8-3c0-1.4-0.8-2.1-2.3-2.8l-1.5-0.7
			c-0.9-0.4-1.6-0.8-1.6-1.6c0-1.2,1.3-1.7,2.3-1.7c1,0,1.9,0.5,2.5,0.9V9.2C168.3,8.8,167.6,8.4,166.3,8.4z M178.5,9.9V8.5h-9v1.4
			h3.8v9.5h1.5V9.9H178.5z M186,19.5h2.3l-5.3-4.6c0.2,0,0.4,0,0.5,0c1.9,0,3.9-1.1,3.9-3.1c0-2.3-1.9-3.3-3.8-3.3h-4.2v10.9h1.5
			v-4.6L186,19.5z M180.8,9.9h2.5c1.4,0,2.5,0.7,2.5,1.9c0,1.2-0.9,1.9-2.6,1.9c-0.8,0-1.7-0.1-2.4-0.3V9.9z M197.7,8.5h-1.5v6.6
			c0,2.2-1.4,3.1-3,3.1c-1.6,0-3-0.9-3-3.1V8.5h-1.5v6.6c0,2.9,1.9,4.5,4.5,4.5s4.5-1.7,4.5-4.5V8.5z M209.9,19.5V8.5h-0.6l-4.5,4.9
			l-4.5-4.9h-0.6v10.9h1.5v-8l3.4,3.8h0.4l3.4-3.8v8H209.9z M213.5,9.9h6V8.5h-7.5v10.9h7.5v-1.4h-6v-3.5h5.3v-1.4h-5.3V9.9z
			 M230.4,19.5V8.5h-1.5v7.9l-7.1-7.9h-0.6v10.9h1.5v-7.8l7.1,7.8H230.4z M240.3,9.9V8.5h-9v1.4h3.8v9.5h1.5V9.9H240.3z M243.8,8.4
			c-1.9,0-3.6,1.3-3.6,3.1c0,1.2,0.5,2.1,2,2.8l1.8,0.8c0.7,0.3,1.6,0.8,1.6,1.6c0,1-1,1.5-2.1,1.5c-1.4,0-2.5-0.6-3.3-1.1v1.5
			c0.8,0.6,1.9,1.1,3.1,1.1c2,0,3.8-1.3,3.8-3c0-1.4-0.8-2.1-2.3-2.8l-1.5-0.7c-0.9-0.4-1.6-0.8-1.6-1.6c0-1.2,1.3-1.7,2.3-1.7
			c1,0,1.9,0.5,2.5,0.9V9.2C245.9,8.8,245.1,8.4,243.8,8.4z"/>
		<path class="st5" d="M69.1,15l3.4,4.4h3l-4.8-6.2l4.3-4.8h-2.9l-4.2,4.9V8.5h-2.3v10.9h2.3v-3.1L69.1,15z M80,10.6h1.8v-2h-6v2
			h1.8v6.9h-1.8v2h6v-2H80V10.6z M91.6,10.6v-2h-9.2v2h3.5v8.8h2.3v-8.8H91.6z M98.7,17.4l0.8,2h2.7l-5.1-11H96l-5.1,11h2.7l0.8-2
			H98.7z M97.9,15.5h-2.7l1.4-3.3L97.9,15.5z M110.9,9.1V8.5H102v2h5.3l-5.3,8.3v0.6h8.9v-2h-5.4L110.9,9.1z M118.5,17.4l0.8,2h2.7
			l-5.1-11h-1.1l-5.1,11h2.7l0.8-2H118.5z M117.7,15.5H115l1.4-3.3L117.7,15.5z M130.5,10.6v-2h-9.2v2h3.5v8.8h2.3v-8.8H130.5z
			 M136,8.3c-3.1,0-5.7,2.3-5.7,5.7s2.6,5.7,5.7,5.7c3.1,0,5.7-2.3,5.7-5.7S139.1,8.3,136,8.3z M136,10.4c2,0,3.4,1.5,3.4,3.6
			s-1.4,3.6-3.4,3.6c-2,0-3.4-1.5-3.4-3.6S134,10.4,136,10.4z"/>
		<path class="st6" d="M220.5,29.7c-1,0-2,0.7-2,1.7c0,0.7,0.2,1.2,1.1,1.5l1,0.4c0.4,0.2,0.8,0.4,0.8,0.8c0,0.5-0.5,0.8-1.1,0.8
			c-0.7,0-1.3-0.3-1.8-0.6v0.8c0.4,0.3,1,0.6,1.7,0.6c1.1,0,2-0.7,2-1.6c0-0.7-0.4-1.1-1.2-1.5l-0.8-0.4c-0.5-0.2-0.9-0.4-0.9-0.9
			c0-0.6,0.7-0.9,1.2-0.9c0.5,0,1,0.3,1.4,0.5v-0.8C221.6,30,221.1,29.7,220.5,29.7z M228.9,29.8h-0.8v2.5h-3.4v-2.5h-0.8v5.9h0.8
			V33h3.4v2.7h0.8V29.8z M233.7,29.7c-1.8,0-3.1,1.4-3.1,3.1c0,1.7,1.3,3.1,3.1,3.1c1.8,0,3.1-1.4,3.1-3.1
			C236.8,31.1,235.4,29.7,233.7,29.7z M233.7,30.4c1.3,0,2.3,1,2.3,2.3s-1,2.3-2.3,2.3c-1.3,0-2.3-1-2.3-2.3S232.4,30.4,233.7,30.4z
			 M238.5,29.8v5.9h0.8v-2.3c0.3,0.1,0.8,0.3,1.4,0.3c1.2,0,2.2-0.9,2.2-1.9c0-1.2-1-2-2-2H238.5z M240.7,32.9
			c-0.5,0-1.1-0.1-1.4-0.3v-2.1h1.3c0.8,0,1.5,0.5,1.5,1.2C242.1,32.4,241.6,32.9,240.7,32.9z M176.8,29.7c-1,0-2,0.7-2,1.7
			c0,0.7,0.2,1.2,1.1,1.5l1,0.4c0.4,0.2,0.8,0.4,0.8,0.8c0,0.5-0.5,0.8-1.1,0.8c-0.7,0-1.3-0.3-1.8-0.6v0.8c0.4,0.3,1,0.6,1.7,0.6
			c1.1,0,2-0.7,2-1.6c0-0.7-0.4-1.1-1.2-1.5l-0.8-0.4c-0.5-0.2-0.9-0.4-0.9-0.9c0-0.6,0.7-0.9,1.2-0.9c0.5,0,1,0.3,1.4,0.5v-0.8
			C178,30,177.5,29.7,176.8,29.7z M181.1,30.6h3.2v-0.7h-4v5.9h4v-0.7h-3.2V33h2.9v-0.7h-2.9V30.6z M189.9,35.7h1.2l-2.9-2.5
			c0.1,0,0.2,0,0.3,0c1,0,2.1-0.6,2.1-1.7c0-1.2-1-1.8-2-1.8h-2.3v5.9h0.8v-2.5L189.9,35.7z M187.1,30.6h1.3c0.8,0,1.4,0.4,1.4,1
			c0,0.6-0.5,1-1.4,1c-0.4,0-0.9-0.1-1.3-0.2V30.6z M194.7,35.7l2.8-5.9h-0.9l-2,4.6l-2-4.6h-0.9l2.8,5.9H194.7z M200.6,30.6h1v-0.7
			h-2.8v0.7h1v4.4h-1v0.7h2.8v-0.7h-1V30.6z M206.4,29.7c-1.8,0-3.1,1.4-3.1,3.1c0,1.7,1.3,3.1,3.1,3.1c0.9,0,1.5-0.3,1.9-0.7v-0.8
			c-0.4,0.3-1,0.7-1.9,0.7c-1.3,0-2.3-1-2.3-2.3s1-2.3,2.3-2.3c0.9,0,1.4,0.5,1.8,0.7v-0.9C207.8,29.9,207.3,29.7,206.4,29.7z
			 M210.9,30.6h3.2v-0.7h-4v5.9h4v-0.7h-3.2V33h2.9v-0.7h-2.9V30.6z M106.8,30.6h1v-0.7H105v0.7h1v4.4h-1v0.7h2.8v-0.7h-1V30.6z
			 M115,35.7v-5.9h-0.8v4.3l-3.8-4.3h-0.3v5.9h0.8v-4.2l3.8,4.2H115z M118.6,29.7c-1,0-2,0.7-2,1.7c0,0.7,0.2,1.2,1.1,1.5l1,0.4
			c0.4,0.2,0.8,0.4,0.8,0.8c0,0.5-0.5,0.8-1.1,0.8c-0.7,0-1.3-0.3-1.8-0.6v0.8c0.4,0.3,1,0.6,1.7,0.6c1.1,0,2-0.7,2-1.6
			c0-0.7-0.4-1.1-1.2-1.5l-0.8-0.4c-0.5-0.2-0.9-0.4-0.9-0.9c0-0.6,0.7-0.9,1.2-0.9c0.5,0,1,0.3,1.4,0.5v-0.8
			C119.7,30,119.3,29.7,118.6,29.7z M126.3,30.6v-0.7h-4.9v0.7h2v5.1h0.8v-5.1H126.3z M131.4,35.7h1.2l-2.9-2.5c0.1,0,0.2,0,0.3,0
			c1,0,2.1-0.6,2.1-1.7c0-1.2-1-1.8-2-1.8h-2.3v5.9h0.8v-2.5L131.4,35.7z M128.6,30.6h1.3c0.8,0,1.4,0.4,1.4,1c0,0.6-0.5,1-1.4,1
			c-0.4,0-0.9-0.1-1.3-0.2V30.6z M138.7,29.8h-0.8v3.6c0,1.2-0.8,1.7-1.6,1.7c-0.9,0-1.6-0.5-1.6-1.7v-3.6h-0.8v3.6
			c0,1.5,1,2.4,2.4,2.4s2.4-0.9,2.4-2.4V29.8z M146.5,35.7v-5.9h-0.3l-2.4,2.6l-2.4-2.6h-0.3v5.9h0.8v-4.3l1.9,2h0.2l1.8-2v4.3
			H146.5z M149.6,30.6h3.2v-0.7h-4v5.9h4v-0.7h-3.2V33h2.9v-0.7h-2.9V30.6z M159.7,35.7v-5.9h-0.8v4.3l-3.8-4.3h-0.3v5.9h0.8v-4.2
			l3.8,4.2H159.7z M166.1,30.6v-0.7h-4.9v0.7h2v5.1h0.8v-5.1H166.1z M169,29.7c-1,0-2,0.7-2,1.7c0,0.7,0.2,1.2,1.1,1.5l1,0.4
			c0.4,0.2,0.8,0.4,0.8,0.8c0,0.5-0.5,0.8-1.1,0.8c-0.7,0-1.3-0.3-1.8-0.6v0.8c0.4,0.3,1,0.6,1.7,0.6c1.1,0,2-0.7,2-1.6
			c0-0.7-0.4-1.1-1.2-1.5l-0.8-0.4c-0.5-0.2-0.9-0.4-0.9-0.9c0-0.6,0.7-0.9,1.2-0.9c0.5,0,1,0.3,1.4,0.5v-0.8
			C170.1,30,169.7,29.7,169,29.7z M75.3,30.6v-0.7h-4.9v0.7h2v5.1h0.8v-5.1H75.3z M79.4,29.7c-1.8,0-3.1,1.4-3.1,3.1
			c0,1.7,1.3,3.1,3.1,3.1c1.8,0,3.1-1.4,3.1-3.1C82.5,31.1,81.1,29.7,79.4,29.7z M79.4,30.4c1.3,0,2.3,1,2.3,2.3s-1,2.3-2.3,2.3
			c-1.3,0-2.3-1-2.3-2.3S78.1,30.4,79.4,30.4z M88.3,30.6v-0.7h-4.9v0.7h2v5.1h0.8v-5.1H88.3z M93.3,34.3l0.6,1.4h0.9l-2.8-5.9h-0.4
			L89,35.7h0.9l0.6-1.4H93.3z M93,33.5h-2.1l1.1-2.4L93,33.5z M97,34.9v-5.1h-0.8v5.9h4v-0.7H97z"/>
	</g>
</g>
</svg>
